<svg id="组_203" data-name="组 203" xmlns="http://www.w3.org/2000/svg" width="20" height="13.128" viewBox="0 0 20 13.128">
  <path id="路径_111" data-name="路径 111" d="M621,504.758a.947.947,0,1,1-.947.947.946.946,0,0,1,.947-.947Zm3.739,0a.947.947,0,1,1-.947.947.946.946,0,0,1,.947-.947Zm3.739,0a.947.947,0,1,1-.947.947.947.947,0,0,1,.947-.947Zm3.74,0a.947.947,0,1,1-.947.947.946.946,0,0,1,.947-.947Zm7.675.3-5.9-5.9a.994.994,0,0,0-1.339,1.339l5.066,5.065-5.066,5.065a.993.993,0,0,0,1.338,1.339l5.9-5.9a.915.915,0,0,0,0-1.016Zm0,0" transform="translate(-620.05 -498.999)" fill="#fff"/>
</svg>
